# xmcd
#
# Track frame offsets:
#	150
#	13035
#	34501
#	47886
#	65160
#	79202
#	99508
#	111973
#	127218
#	141325
#	158568
#	172881
#
# Disc length: 2451 seconds
#
# Revision: 0
# Processed by: cddbd v1.5.2PL0 Copyright (c) Steve Scherf et al.
# Submitted via: dBpowerAMP V4.0
#
DISCID=a309910c
DTITLE=Jason Martin - Texas Boy
DYEAR=2005
DGENRE=Country
TTITLE0=Never Thought Twice
TTITLE1=I Didn't Ask Her to Dance
TTITLE2=Foolish Heart
TTITLE3=Texas Boy
TTITLE4=The Angel
TTITLE5=Under The Moonlight
TTITLE6=On My Way
TTITLE7=Just Me And You
TTITLE8=If You're Lonely
TTITLE9=I Think I'm Falling In Love
TTITLE10=Keepin' It Country
TTITLE11=What A Wonderful World
EXTD=
EXTT0=
EXTT1=
EXTT2=
EXTT3=
EXTT4=
EXTT5=
EXTT6=
EXTT7=
EXTT8=
EXTT9=
EXTT10=
EXTT11=
PLAYORDER=
